# xmcd
#
# Track frame offsets: 
#        182
#        17662
#        33740
#        52100
#        68382
#        84345
#        100387
#        112757
#        129440
#        145362
#        163307
#        194807
#        210922
#        226560
#        243845
#        259792
#        275732
#        290957
#        308605
#        325780
#
# Disc length: 4538 seconds
#
# Revision: 6
# Processed by: cddbd v1.5.2PL0 Copyright (c) Steve Scherf et al.
# Submitted via: ExactAudioCopy v0.99pb5
#
DISCID=1e11b814
DTITLE=Various Artist - BOOOM 2001 - THE SECOND
DYEAR=2001
DGENRE=Pop
TTITLE0=SCOOTER - Posse (I Need You On The Floor)
TTITLE1=BARTHEZZ - On The Move
TTITLE2=SYLVER - Turn The Tide
TTITLE3=JAM and SPOON FEAT. REA - Be.Angeled
TTITLE4=FRAGMA - You Are Alive
TTITLE5=MEMBERS OF MAYDAY - 10IN01
TTITLE6=BLANK and JONES - DJs, Fans and Freaks (D.F.F.)
TTITLE7=FLYING STEPS - Breakin' It Down
TTITLE8=TWISTER´S SILENCE - Listen To Me Mama
TTITLE9=GIGI D´AGOSTINO and ALBERTINO - Super (Riscaldamento)
TTITLE10=CHRIS KAIN - The Decision Is Yours
TTITLE11=FATBOY SLIM - Star 69
TTITLE12=M and S PRESENTS ... THE GIRL NEXT DOOR - Salsoul Nugget (If U 
TTITLE12=Wanna)
TTITLE13=BEE BUMPERS - Road To Hell
TTITLE14=AUDIOSMOG and TOBI SCHLEGL - Daylight In Your Eyes
TTITLE15=SVEN SCHUMACHER - Different
TTITLE16=FREISTIL - Küssenschlacht
TTITLE17=2-RAUM WOHNUNG - Nimm Mich Mit
TTITLE18=APRICOT - Only You Can
TTITLE19=CAPTAIN JACK - Iko Iko
EXTD=YEAR: 2001
EXTT0=
EXTT1=
EXTT2=
EXTT3=
EXTT4=
EXTT5=
EXTT6=
EXTT7=
EXTT8=
EXTT9=
EXTT10=
EXTT11=
EXTT12=
EXTT13=
EXTT14=
EXTT15=
EXTT16=
EXTT17=
EXTT18=
EXTT19=
PLAYORDER=
